<?xml version="1.0" standalone="no"?>
<!DOCTYPE svg PUBLIC "-//W3C//DTD SVG 20010904//EN"
 "http://www.w3.org/TR/2001/REC-SVG-20010904/DTD/svg10.dtd">
<svg version="1.0" xmlns="http://www.w3.org/2000/svg"
 width="542.000000pt" height="542.000000pt" viewBox="0 0 542.000000 542.000000"
 preserveAspectRatio="xMidYMid meet">
<metadata>
Created by potrace 1.14, written by Peter Selinger 2001-2017
</metadata>
<g transform="translate(0.000000,542.000000) scale(0.100000,-0.100000)"
fill="#000000" stroke="none">
<path d="M2739 5406 c-2 -2 -46 -6 -97 -10 -79 -6 -259 -33 -342 -52 -14 -3
-37 -7 -53 -10 -15 -3 -74 -21 -132 -39 -502 -163 -948 -551 -1179 -1027 -46
-94 -112 -281 -122 -346 -3 -19 -8 -44 -10 -56 -7 -32 -18 -166 -18 -216 0
-97 13 -199 40 -301 31 -123 20 -150 -145 -379 -213 -294 -371 -561 -371 -626
0 -71 32 -115 104 -143 28 -11 96 -37 150 -58 76 -30 106 -47 128 -74 30 -37
65 -125 73 -186 3 -21 8 -54 12 -73 3 -19 7 -190 8 -380 2 -297 5 -352 20
-395 36 -105 118 -180 225 -207 19 -5 44 -11 55 -14 44 -11 225 -4 301 12 162
35 313 19 395 -42 83 -61 118 -154 125 -334 6 -160 15 -192 68 -245 35 -34 60
-48 137 -73 99 -32 167 -51 209 -58 14 -2 36 -7 50 -10 14 -3 36 -8 50 -10 14
-2 34 -6 45 -9 28 -6 148 -20 260 -32 93 -9 466 -9 580 0 126 9 312 35 430 58
55 11 111 22 125 25 63 13 296 79 394 112 169 57 183 93 101 266 -58 123 -100
251 -127 381 -29 146 -31 384 -4 519 3 11 9 44 15 72 38 190 123 350 365 678
150 204 244 346 301 451 21 39 41 75 45 80 14 20 89 212 108 280 24 80 47 192
59 280 10 76 10 376 0 475 -8 77 -8 81 -27 190 -7 36 -14 76 -16 90 -3 14 -7
32 -10 40 -3 8 -8 26 -10 40 -10 56 -70 221 -114 315 -163 348 -436 615 -815
796 -108 52 -339 137 -416 153 -13 3 -62 14 -109 24 -47 11 -114 24 -150 30
-62 11 -93 15 -205 28 -58 7 -500 16 -506 10z m461 -318 c60 -18 104 -45 145
-86 38 -40 39 -40 69 -25 40 21 141 28 192 14 62 -17 134 -70 167 -123 17 -26
33 -48 37 -48 4 0 25 7 46 16 86 36 219 -2 278 -79 28 -37 56 -107 56 -141 0
-21 5 -22 69 -22 62 1 73 -2 107 -29 56 -46 76 -89 72 -156 l-4 -57 54 -12
c125 -28 203 -172 157 -288 l-16 -38 -60 2 c-72 3 -154 -17 -222 -54 -83 -45
-187 -158 -187 -204 0 -48 42 -88 92 -88 13 0 45 25 82 64 85 87 131 110 226
111 60 0 85 -5 125 -25 43 -21 54 -34 78 -84 80 -167 86 -366 17 -549 -26 -70
-104 -188 -158 -240 -35 -35 -39 -42 -32 -71 28 -125 -42 -269 -164 -341 -61
-36 -160 -49 -233 -31 -30 7 -31 6 -38 -32 -18 -106 -102 -223 -208 -289 -184
-116 -365 -95 -529 60 l-37 35 -63 -18 c-108 -30 -238 -13 -328 43 -31 20 -49
22 -160 22 -103 0 -131 3 -160 19 -49 26 -79 55 -101 98 l-19 38 43 0 c24 0
78 9 119 19 138 35 258 109 386 237 74 75 82 87 82 122 0 49 -35 85 -81 84
-24 -1 -48 -18 -117 -84 -107 -103 -180 -152 -275 -185 -62 -22 -84 -25 -159
-21 -73 5 -99 11 -160 40 -156 74 -225 177 -233 347 -1 30 1 69 5 87 l8 33
-117 -1 c-224 -2 -361 42 -486 155 -45 40 -104 120 -77 103 14 -9 123 28 170
58 97 61 188 197 176 261 -8 42 -36 65 -81 65 -38 0 -63 -22 -92 -79 -51 -98
-132 -143 -258 -143 -145 0 -283 195 -271 383 12 168 155 329 315 355 l41 6
-13 32 c-36 86 18 214 105 248 62 24 66 22 98 -46 81 -173 225 -229 386 -150
101 49 132 113 81 168 -31 34 -62 33 -132 -4 -74 -40 -113 -39 -147 1 -29 34
-56 92 -56 118 0 18 73 99 110 122 92 57 207 67 307 27 67 -27 64 -29 98 32
28 51 82 99 145 129 97 45 241 35 323 -22 l29 -19 33 35 c89 94 225 132 345
95z"/>
<path d="M2824 4828 c-41 -20 -46 -47 -24 -140 7 -27 10 -71 8 -98 -13 -128
-97 -195 -316 -250 -36 -9 -46 -17 -58 -47 -19 -43 -5 -87 33 -107 32 -16 108
-5 201 30 92 34 145 67 201 124 79 80 112 171 106 289 -9 175 -61 243 -151
199z"/>
<path d="M3573 4803 c-29 -6 -63 -49 -63 -79 0 -13 13 -51 29 -84 16 -33 32
-73 36 -88 5 -27 3 -29 -60 -51 -78 -28 -105 -56 -100 -108 4 -40 35 -72 71
-73 11 0 54 12 95 27 100 36 250 39 319 7 54 -26 96 -63 140 -126 35 -51 62
-62 108 -42 62 26 67 79 16 155 -81 122 -193 189 -344 204 -36 3 -68 9 -71 13
-3 4 -13 34 -23 67 -25 84 -65 154 -98 171 -15 8 -28 13 -30 13 -2 -1 -13 -4
-25 -6z"/>
<path d="M2591 3995 c-44 -48 -104 -165 -116 -225 -25 -130 -5 -307 39 -349
44 -41 114 -23 136 35 6 14 3 40 -6 70 -33 111 -11 236 63 347 38 58 44 73 39
101 -8 39 -42 66 -84 66 -22 0 -40 -12 -71 -45z"/>
<path d="M3038 3978 c-40 -14 -59 -63 -47 -118 19 -84 77 -187 142 -254 67
-68 115 -97 216 -130 l65 -21 11 -50 c18 -78 52 -140 106 -190 60 -56 125 -85
196 -87 62 -2 88 17 99 68 7 39 -35 94 -72 94 -32 0 -83 22 -112 48 -30 26
-58 103 -61 166 -5 94 -25 113 -126 122 -68 7 -165 55 -210 106 -39 42 -95
153 -95 186 0 39 -67 75 -112 60z"/>
<path d="M3348 2680 c-26 -27 -29 -35 -23 -68 9 -49 57 -138 100 -183 133
-144 342 -172 552 -73 74 36 62 145 -18 157 -13 2 -55 -7 -94 -21 -83 -29
-181 -32 -237 -8 -53 23 -101 74 -133 144 -40 88 -93 106 -147 52z"/>
</g>
</svg>
